<?xml version="1.0" encoding="UTF-8"?>
<svg xmlns="http://www.w3.org/2000/svg" width="157" height="23" viewBox="0 0 157 23" fill="none">
  <path d="M8.19 8.05H7.8L12.6 0.999999H8.67L2.01 10.99C1.2 12.16 0.75 13.6 0.75 15.22C0.75 19.45 3.81 22.39 8.19 22.39C12.54 22.39 15.6 19.45 15.6 15.22C15.6 10.99 12.54 8.05 8.19 8.05ZM8.19 19.12C5.88 19.12 4.2 17.62 4.2 15.22C4.2 12.82 5.88 11.32 8.19 11.32C10.47 11.32 12.15 12.82 12.15 15.22C12.15 17.59 10.47 19.12 8.19 19.12ZM26.3147 10.12V7H22.5947V2.8L19.3547 3.76V7H16.5947V10.12H19.3547V17.32C19.3547 21.22 21.3347 22.6 26.3147 22V19.09C23.8547 19.21 22.5947 19.24 22.5947 17.32V10.12H26.3147ZM37.1433 6.61C35.1033 6.61 33.4833 7.36 32.4933 8.92V0.999999H29.2533V22H32.4933V13.96C32.4933 10.9 34.1733 9.64 36.3033 9.64C38.3433 9.64 39.6633 10.84 39.6633 13.12V22H42.9033V12.79C42.9033 8.89 40.5033 6.61 37.1433 6.61ZM53.592 22.39C57.972 22.39 61.032 20.05 61.032 16.21C61.032 12.04 57.522 10.96 54.042 9.85C50.982 8.89 49.812 8.2 49.812 6.58C49.812 4.99 51.102 3.97 53.112 3.97C55.452 3.97 56.772 5.23 57.522 6.91L60.432 5.23C59.112 2.44 56.562 0.609998 53.112 0.609998C49.572 0.609998 46.362 2.8 46.362 6.67C46.362 10.63 49.542 11.83 52.812 12.82C55.932 13.78 57.582 14.41 57.582 16.27C57.582 17.8 56.412 19.03 53.682 19.03C50.832 19.03 49.212 17.62 48.462 15.49L45.492 17.23C46.602 20.35 49.452 22.39 53.592 22.39ZM71.2845 22.39C75.6945 22.39 79.2045 18.94 79.2045 14.5C79.2045 10.03 75.6945 6.61 71.2845 6.61C66.9045 6.61 63.3645 10.03 63.3645 14.5C63.3645 18.94 66.9045 22.39 71.2845 22.39ZM71.2845 19.24C68.6445 19.24 66.6045 17.23 66.6045 14.5C66.6045 11.77 68.6445 9.76 71.2845 9.76C73.9245 9.76 75.9645 11.77 75.9645 14.5C75.9645 17.23 73.9245 19.24 71.2845 19.24ZM82.1341 22H85.3741V0.0999994H82.1341V22ZM99.2461 7V15.04C99.2461 18.1 97.5661 19.36 95.4361 19.36C93.3961 19.36 92.0761 18.16 92.0761 15.88V7H88.8361V16.21C88.8361 20.11 91.2361 22.39 94.5961 22.39C96.6361 22.39 98.2561 21.64 99.2461 20.08V22H102.486V7H99.2461ZM114.645 10.12V7H110.925V2.8L107.685 3.76V7H104.925V10.12H107.685V17.32C107.685 21.22 109.665 22.6 114.645 22V19.09C112.185 19.21 110.925 19.24 110.925 17.32V10.12H114.645ZM119.203 4.75C120.343 4.75 121.273 3.79 121.273 2.68C121.273 1.54 120.343 0.609998 119.203 0.609998C118.063 0.609998 117.133 1.54 117.133 2.68C117.133 3.79 118.063 4.75 119.203 4.75ZM117.583 22H120.823V7H117.583V22ZM131.665 22.39C136.075 22.39 139.585 18.94 139.585 14.5C139.585 10.03 136.075 6.61 131.665 6.61C127.285 6.61 123.745 10.03 123.745 14.5C123.745 18.94 127.285 22.39 131.665 22.39ZM131.665 19.24C129.025 19.24 126.985 17.23 126.985 14.5C126.985 11.77 129.025 9.76 131.665 9.76C134.305 9.76 136.345 11.77 136.345 14.5C136.345 17.23 134.305 19.24 131.665 19.24ZM150.405 6.61C148.365 6.61 146.745 7.36 145.755 8.92V7H142.515V22H145.755V13.96C145.755 10.9 147.435 9.64 149.565 9.64C151.605 9.64 152.925 10.84 152.925 13.12V22H156.165V12.79C156.165 8.89 153.765 6.61 150.405 6.61Z" fill="white"></path>
</svg>
